<mxfile host="app.diagrams.net" modified="2023-02-01T01:55:17.887Z" agent="5.0 (Windows NT 10.0; Win64; x64) AppleWebKit/537.36 (KHTML, like Gecko) Chrome/109.0.0.0 Safari/537.36" etag="08Y-axXlCyuETzZFOWzE" version="20.8.3" type="github">
  <diagram id="6a731a19-8d31-9384-78a2-239565b7b9f0" name="Page-1">
    <mxGraphModel dx="2868" dy="1528" grid="1" gridSize="10" guides="1" tooltips="1" connect="1" arrows="1" fold="1" page="1" pageScale="1" pageWidth="827" pageHeight="1169" background="none" math="0" shadow="0">
      <root>
        <mxCell id="0" />
        <mxCell id="1" parent="0" />
        <mxCell id="2089" value="" style="rounded=1;whiteSpace=wrap;html=1;strokeColor=none;fillColor=#BAC8D3;fontSize=24;fontColor=#23445D;align=center;opacity=60;" parent="1" vertex="1">
          <mxGeometry x="707" y="545" width="273" height="415" as="geometry" />
        </mxCell>
        <mxCell id="2094" value="" style="rounded=1;whiteSpace=wrap;html=1;strokeColor=none;fillColor=#BAC8D3;fontSize=24;fontColor=#23445D;align=center;opacity=60;" parent="1" vertex="1">
          <mxGeometry x="923" y="30" width="490" height="210" as="geometry" />
        </mxCell>
        <mxCell id="2103" value="" style="shape=mxgraph.cisco.servers.fileserver;html=1;dashed=0;fillColor=#10739E;strokeColor=#ffffff;strokeWidth=2;verticalLabelPosition=bottom;verticalAlign=top;fontFamily=Helvetica;fontSize=36;fontColor=#FFB366" parent="1" vertex="1">
          <mxGeometry x="1043" y="97" width="43" height="62" as="geometry" />
        </mxCell>
        <mxCell id="2104" value="" style="shape=mxgraph.cisco.servers.fileserver;html=1;dashed=0;fillColor=#10739E;strokeColor=#ffffff;strokeWidth=2;verticalLabelPosition=bottom;verticalAlign=top;fontFamily=Helvetica;fontSize=36;fontColor=#FFB366" parent="1" vertex="1">
          <mxGeometry x="1113" y="97" width="43" height="62" as="geometry" />
        </mxCell>
        <mxCell id="2106" value="" style="shape=mxgraph.cisco.servers.storage_server;html=1;dashed=0;fillColor=#10739E;strokeColor=#ffffff;strokeWidth=2;verticalLabelPosition=bottom;verticalAlign=top;fontFamily=Helvetica;fontSize=36;fontColor=#FFB366" parent="1" vertex="1">
          <mxGeometry x="1200" y="81" width="54" height="83" as="geometry" />
        </mxCell>
        <mxCell id="2112" value="" style="shape=mxgraph.cisco.switches.layer_3_switch;html=1;dashed=0;fillColor=#10739E;strokeColor=#ffffff;strokeWidth=2;verticalLabelPosition=bottom;verticalAlign=top;fontFamily=Helvetica;fontSize=36;fontColor=#FFB366" parent="1" vertex="1">
          <mxGeometry x="816.5" y="420" width="64" height="64" as="geometry" />
        </mxCell>
        <mxCell id="2149" value="" style="shape=mxgraph.cisco.misc.access_point;html=1;dashed=0;fillColor=#10739E;strokeColor=#ffffff;strokeWidth=2;verticalLabelPosition=bottom;verticalAlign=top;fontFamily=Helvetica;fontSize=36;fontColor=#FFB366" parent="1" vertex="1">
          <mxGeometry x="874" y="700" width="79" height="34" as="geometry" />
        </mxCell>
        <mxCell id="2150" value="" style="shape=mxgraph.cisco.misc.access_point;html=1;dashed=0;fillColor=#10739E;strokeColor=#ffffff;strokeWidth=2;verticalLabelPosition=bottom;verticalAlign=top;fontFamily=Helvetica;fontSize=36;fontColor=#FFB366" parent="1" vertex="1">
          <mxGeometry x="874" y="774" width="75" height="34" as="geometry" />
        </mxCell>
        <mxCell id="2151" value="" style="shape=mxgraph.cisco.misc.access_point;html=1;dashed=0;fillColor=#10739E;strokeColor=#ffffff;strokeWidth=2;verticalLabelPosition=bottom;verticalAlign=top;fontFamily=Helvetica;fontSize=36;fontColor=#FFB366" parent="1" vertex="1">
          <mxGeometry x="874" y="623" width="75" height="34" as="geometry" />
        </mxCell>
        <mxCell id="2153" value="" style="line;html=1;strokeColor=#23445D;" parent="1" vertex="1">
          <mxGeometry x="995" y="207" width="338" height="10" as="geometry" />
        </mxCell>
        <mxCell id="2154" value="" style="line;html=1;strokeColor=#23445D;" parent="1" vertex="1">
          <mxGeometry x="377" y="340" width="943" height="10" as="geometry" />
        </mxCell>
        <mxCell id="2162" value="" style="edgeStyle=elbowEdgeStyle;elbow=horizontal;endArrow=none;html=1;strokeColor=#23445D;endFill=0;strokeWidth=4;rounded=1" parent="1" edge="1">
          <mxGeometry width="100" height="100" relative="1" as="geometry">
            <mxPoint x="465" y="210" as="sourcePoint" />
            <mxPoint x="466" y="252" as="targetPoint" />
          </mxGeometry>
        </mxCell>
        <mxCell id="2163" value="" style="edgeStyle=elbowEdgeStyle;elbow=horizontal;endArrow=none;html=1;strokeColor=#23445D;endFill=0;strokeWidth=4;rounded=1" parent="1" edge="1">
          <mxGeometry width="100" height="100" relative="1" as="geometry">
            <mxPoint x="466" y="302" as="sourcePoint" />
            <mxPoint x="465.2777777777774" y="345.0833333333335" as="targetPoint" />
          </mxGeometry>
        </mxCell>
        <mxCell id="2164" value="" style="edgeStyle=elbowEdgeStyle;elbow=horizontal;endArrow=none;html=1;strokeColor=#23445D;endFill=0;strokeWidth=4;rounded=1" parent="1" source="2103" edge="1">
          <mxGeometry width="100" height="100" relative="1" as="geometry">
            <mxPoint x="1062" y="170" as="sourcePoint" />
            <mxPoint x="1062.2777777777774" y="212.08333333333348" as="targetPoint" />
          </mxGeometry>
        </mxCell>
        <mxCell id="2165" value="" style="edgeStyle=elbowEdgeStyle;elbow=horizontal;endArrow=none;html=1;strokeColor=#23445D;endFill=0;strokeWidth=4;rounded=1" parent="1" source="2104" edge="1">
          <mxGeometry width="100" height="100" relative="1" as="geometry">
            <mxPoint x="1134" y="170.00000000000006" as="sourcePoint" />
            <mxPoint x="1134.2777777777783" y="212.08333333333348" as="targetPoint" />
          </mxGeometry>
        </mxCell>
        <mxCell id="2167" value="" style="edgeStyle=elbowEdgeStyle;elbow=horizontal;endArrow=none;html=1;strokeColor=#23445D;endFill=0;strokeWidth=4;rounded=1" parent="1" source="2106" edge="1">
          <mxGeometry width="100" height="100" relative="1" as="geometry">
            <mxPoint x="1303" y="170.00000000000006" as="sourcePoint" />
            <mxPoint x="1303.2777777777774" y="212.08333333333348" as="targetPoint" />
          </mxGeometry>
        </mxCell>
        <mxCell id="2168" value="" style="edgeStyle=elbowEdgeStyle;elbow=horizontal;endArrow=none;html=1;strokeColor=#23445D;endFill=0;strokeWidth=4;rounded=1" parent="1" edge="1">
          <mxGeometry width="100" height="100" relative="1" as="geometry">
            <mxPoint x="1244" y="212" as="sourcePoint" />
            <mxPoint x="1244" y="252" as="targetPoint" />
          </mxGeometry>
        </mxCell>
        <mxCell id="2169" value="" style="edgeStyle=elbowEdgeStyle;elbow=horizontal;endArrow=none;html=1;strokeColor=#23445D;endFill=0;strokeWidth=4;rounded=1" parent="1" edge="1">
          <mxGeometry width="100" height="100" relative="1" as="geometry">
            <mxPoint x="1244" y="303" as="sourcePoint" />
            <mxPoint x="1244.2777777777774" y="345.0833333333335" as="targetPoint" />
          </mxGeometry>
        </mxCell>
        <mxCell id="2178" value="" style="edgeStyle=elbowEdgeStyle;elbow=horizontal;endArrow=none;html=1;strokeColor=#23445D;endFill=0;strokeWidth=4;rounded=1" parent="1" target="2112" edge="1">
          <mxGeometry width="100" height="100" relative="1" as="geometry">
            <mxPoint x="663" y="345" as="sourcePoint" />
            <mxPoint x="663.2777777777778" y="387.08333333333337" as="targetPoint" />
            <Array as="points">
              <mxPoint x="850" y="380" />
            </Array>
          </mxGeometry>
        </mxCell>
        <mxCell id="2203" style="edgeStyle=orthogonalEdgeStyle;rounded=1;html=1;strokeColor=#23445D;endArrow=none;endFill=0;strokeWidth=4" parent="1" edge="1">
          <mxGeometry relative="1" as="geometry">
            <Array as="points">
              <mxPoint x="853" y="640" />
            </Array>
            <mxPoint x="852.5999999999999" y="585" as="sourcePoint" />
            <mxPoint x="820" y="640" as="targetPoint" />
          </mxGeometry>
        </mxCell>
        <mxCell id="2204" style="edgeStyle=orthogonalEdgeStyle;rounded=1;html=1;strokeColor=#23445D;endArrow=none;endFill=0;strokeWidth=4" parent="1" edge="1">
          <mxGeometry relative="1" as="geometry">
            <Array as="points">
              <mxPoint x="853" y="710" />
            </Array>
            <mxPoint x="852.5999999999999" y="585" as="sourcePoint" />
            <mxPoint x="820" y="710" as="targetPoint" />
          </mxGeometry>
        </mxCell>
        <mxCell id="2205" style="edgeStyle=orthogonalEdgeStyle;rounded=1;html=1;strokeColor=#23445D;endArrow=none;endFill=0;strokeWidth=4" parent="1" edge="1">
          <mxGeometry relative="1" as="geometry">
            <Array as="points">
              <mxPoint x="853" y="780" />
            </Array>
            <mxPoint x="852.5999999999999" y="585" as="sourcePoint" />
            <mxPoint x="820" y="780" as="targetPoint" />
          </mxGeometry>
        </mxCell>
        <mxCell id="2206" style="edgeStyle=orthogonalEdgeStyle;rounded=1;html=1;strokeColor=#23445D;endArrow=none;endFill=0;strokeWidth=4" parent="1" target="2151" edge="1">
          <mxGeometry relative="1" as="geometry">
            <Array as="points">
              <mxPoint x="853" y="640" />
            </Array>
            <mxPoint x="852.5999999999999" y="585" as="sourcePoint" />
          </mxGeometry>
        </mxCell>
        <mxCell id="2207" style="edgeStyle=orthogonalEdgeStyle;rounded=1;html=1;strokeColor=#23445D;endArrow=none;endFill=0;strokeWidth=4" parent="1" target="2149" edge="1">
          <mxGeometry relative="1" as="geometry">
            <Array as="points">
              <mxPoint x="853" y="720" />
            </Array>
            <mxPoint x="852.5999999999999" y="585" as="sourcePoint" />
          </mxGeometry>
        </mxCell>
        <mxCell id="2208" style="edgeStyle=orthogonalEdgeStyle;rounded=1;html=1;strokeColor=#23445D;endArrow=none;endFill=0;strokeWidth=4" parent="1" target="2150" edge="1">
          <mxGeometry relative="1" as="geometry">
            <Array as="points">
              <mxPoint x="853" y="791" />
            </Array>
            <mxPoint x="852.5999999999999" y="585" as="sourcePoint" />
          </mxGeometry>
        </mxCell>
        <mxCell id="2227" value="&lt;font color=&quot;#23445d&quot; style=&quot;font-size: 27px;&quot;&gt;IPV4网络&lt;/font&gt;" style="rounded=1;whiteSpace=wrap;html=1;strokeColor=none;fillColor=none;fontSize=27;fontColor=#742B21;align=center;fontStyle=1;strokeWidth=1;" parent="1" vertex="1">
          <mxGeometry x="1118" y="42" width="143" height="19" as="geometry" />
        </mxCell>
        <mxCell id="2230" value="用户端&lt;br style=&quot;font-size: 27px;&quot;&gt;&lt;font style=&quot;font-size: 27px;&quot;&gt;&lt;br style=&quot;font-size: 27px;&quot;&gt;&lt;/font&gt;" style="rounded=1;whiteSpace=wrap;html=1;strokeColor=none;fillColor=none;fontSize=27;fontColor=#23445D;align=center;fontStyle=1" parent="1" vertex="1">
          <mxGeometry x="807" y="920" width="96" height="24" as="geometry" />
        </mxCell>
        <mxCell id="2247" value="" style="shape=mxgraph.cisco.misc.access_point;html=1;dashed=0;fillColor=#10739E;strokeColor=#ffffff;strokeWidth=2;verticalLabelPosition=bottom;verticalAlign=top;fontFamily=Helvetica;fontSize=36;fontColor=#FFB366" parent="1" vertex="1">
          <mxGeometry x="870" y="832" width="79" height="34" as="geometry" />
        </mxCell>
        <mxCell id="2249" style="edgeStyle=orthogonalEdgeStyle;rounded=1;html=1;endArrow=none;endFill=0;strokeColor=#23445D;strokeWidth=4;fontSize=14;fontColor=#990000;exitX=0.5;exitY=1;exitDx=0;exitDy=0;exitPerimeter=0;" parent="1" source="2112" target="2247" edge="1">
          <mxGeometry relative="1" as="geometry">
            <Array as="points">
              <mxPoint x="852" y="484" />
              <mxPoint x="852" y="860" />
            </Array>
            <mxPoint x="852.5999999999999" y="585" as="sourcePoint" />
          </mxGeometry>
        </mxCell>
        <mxCell id="2257" style="edgeStyle=orthogonalEdgeStyle;curved=1;rounded=0;jumpStyle=none;html=1;exitX=0.75;exitY=0;entryX=0.75;entryY=0;shadow=0;labelBackgroundColor=#ffffff;startArrow=none;startFill=0;endArrow=none;endFill=0;endSize=10;jettySize=auto;orthogonalLoop=1;strokeColor=#23445D;strokeWidth=2;fillColor=#F08705;fontFamily=Helvetica;fontSize=25;fontColor=#23445D;align=left;" parent="1" edge="1">
          <mxGeometry relative="1" as="geometry">
            <mxPoint x="813.75" y="434" as="sourcePoint" />
            <mxPoint x="813.75" y="434" as="targetPoint" />
          </mxGeometry>
        </mxCell>
        <mxCell id="fm8aAiWN_2B7bxS7GL88-2259" value="" style="rounded=1;whiteSpace=wrap;html=1;strokeColor=none;fillColor=#BAC8D3;fontSize=24;fontColor=#23445D;align=center;opacity=60;dashed=1;" vertex="1" parent="1">
          <mxGeometry x="225" y="30" width="490" height="210" as="geometry" />
        </mxCell>
        <mxCell id="fm8aAiWN_2B7bxS7GL88-2260" value="" style="shape=mxgraph.cisco.servers.fileserver;html=1;dashed=0;fillColor=#10739E;strokeColor=#ffffff;strokeWidth=2;verticalLabelPosition=bottom;verticalAlign=top;fontFamily=Helvetica;fontSize=36;fontColor=#FFB366" vertex="1" parent="1">
          <mxGeometry x="345" y="97" width="43" height="62" as="geometry" />
        </mxCell>
        <mxCell id="fm8aAiWN_2B7bxS7GL88-2261" value="" style="shape=mxgraph.cisco.servers.fileserver;html=1;dashed=0;fillColor=#10739E;strokeColor=#ffffff;strokeWidth=2;verticalLabelPosition=bottom;verticalAlign=top;fontFamily=Helvetica;fontSize=36;fontColor=#FFB366" vertex="1" parent="1">
          <mxGeometry x="415" y="97" width="43" height="62" as="geometry" />
        </mxCell>
        <mxCell id="fm8aAiWN_2B7bxS7GL88-2262" value="" style="shape=mxgraph.cisco.servers.storage_server;html=1;dashed=0;fillColor=#10739E;strokeColor=#ffffff;strokeWidth=2;verticalLabelPosition=bottom;verticalAlign=top;fontFamily=Helvetica;fontSize=36;fontColor=#FFB366" vertex="1" parent="1">
          <mxGeometry x="502" y="81" width="54" height="83" as="geometry" />
        </mxCell>
        <mxCell id="fm8aAiWN_2B7bxS7GL88-2263" value="" style="line;html=1;strokeColor=#23445D;" vertex="1" parent="1">
          <mxGeometry x="297" y="207" width="338" height="10" as="geometry" />
        </mxCell>
        <mxCell id="fm8aAiWN_2B7bxS7GL88-2264" value="" style="edgeStyle=elbowEdgeStyle;elbow=horizontal;endArrow=none;html=1;strokeColor=#23445D;endFill=0;strokeWidth=4;rounded=1" edge="1" parent="1" source="fm8aAiWN_2B7bxS7GL88-2260">
          <mxGeometry width="100" height="100" relative="1" as="geometry">
            <mxPoint x="364" y="170" as="sourcePoint" />
            <mxPoint x="364.2777777777774" y="212.08333333333348" as="targetPoint" />
          </mxGeometry>
        </mxCell>
        <mxCell id="fm8aAiWN_2B7bxS7GL88-2265" value="" style="edgeStyle=elbowEdgeStyle;elbow=horizontal;endArrow=none;html=1;strokeColor=#23445D;endFill=0;strokeWidth=4;rounded=1" edge="1" parent="1" source="fm8aAiWN_2B7bxS7GL88-2261">
          <mxGeometry width="100" height="100" relative="1" as="geometry">
            <mxPoint x="436" y="170.00000000000006" as="sourcePoint" />
            <mxPoint x="436.2777777777783" y="212.08333333333348" as="targetPoint" />
          </mxGeometry>
        </mxCell>
        <mxCell id="fm8aAiWN_2B7bxS7GL88-2266" value="" style="edgeStyle=elbowEdgeStyle;elbow=horizontal;endArrow=none;html=1;strokeColor=#23445D;endFill=0;strokeWidth=4;rounded=1" edge="1" parent="1" source="fm8aAiWN_2B7bxS7GL88-2262">
          <mxGeometry width="100" height="100" relative="1" as="geometry">
            <mxPoint x="605" y="170.00000000000006" as="sourcePoint" />
            <mxPoint x="605.2777777777774" y="212.08333333333348" as="targetPoint" />
          </mxGeometry>
        </mxCell>
        <mxCell id="fm8aAiWN_2B7bxS7GL88-2267" value="&lt;font color=&quot;#23445d&quot; style=&quot;font-size: 27px;&quot;&gt;IPV6网络&lt;/font&gt;" style="rounded=1;whiteSpace=wrap;html=1;strokeColor=none;fillColor=none;fontSize=27;fontColor=#742B21;align=center;fontStyle=1;strokeWidth=1;" vertex="1" parent="1">
          <mxGeometry x="420" y="42" width="143" height="19" as="geometry" />
        </mxCell>
        <mxCell id="fm8aAiWN_2B7bxS7GL88-2268" value="" style="shape=mxgraph.cisco.switches.layer_3_switch;html=1;dashed=0;fillColor=#10739E;strokeColor=#ffffff;strokeWidth=2;verticalLabelPosition=bottom;verticalAlign=top;fontFamily=Helvetica;fontSize=36;fontColor=#FFB366" vertex="1" parent="1">
          <mxGeometry x="430" y="245.5" width="64" height="64" as="geometry" />
        </mxCell>
        <mxCell id="fm8aAiWN_2B7bxS7GL88-2269" value="" style="shape=mxgraph.cisco.switches.layer_3_switch;html=1;dashed=0;fillColor=#10739E;strokeColor=#ffffff;strokeWidth=2;verticalLabelPosition=bottom;verticalAlign=top;fontFamily=Helvetica;fontSize=36;fontColor=#FFB366" vertex="1" parent="1">
          <mxGeometry x="1208" y="245.5" width="64" height="64" as="geometry" />
        </mxCell>
        <mxCell id="fm8aAiWN_2B7bxS7GL88-2271" value="" style="shape=mxgraph.cisco.computers_and_peripherals.terminal;sketch=0;html=1;pointerEvents=1;dashed=0;fillColor=#036897;strokeColor=#ffffff;strokeWidth=2;verticalLabelPosition=bottom;verticalAlign=top;align=center;outlineConnect=0;fontSize=27;" vertex="1" parent="1">
          <mxGeometry x="753" y="613" width="61" height="54" as="geometry" />
        </mxCell>
        <mxCell id="fm8aAiWN_2B7bxS7GL88-2273" value="" style="shape=mxgraph.cisco.computers_and_peripherals.terminal;sketch=0;html=1;pointerEvents=1;dashed=0;fillColor=#036897;strokeColor=#ffffff;strokeWidth=2;verticalLabelPosition=bottom;verticalAlign=top;align=center;outlineConnect=0;fontSize=27;" vertex="1" parent="1">
          <mxGeometry x="753" y="680" width="61" height="54" as="geometry" />
        </mxCell>
        <mxCell id="fm8aAiWN_2B7bxS7GL88-2274" value="" style="shape=mxgraph.cisco.computers_and_peripherals.terminal;sketch=0;html=1;pointerEvents=1;dashed=0;fillColor=#036897;strokeColor=#ffffff;strokeWidth=2;verticalLabelPosition=bottom;verticalAlign=top;align=center;outlineConnect=0;fontSize=27;" vertex="1" parent="1">
          <mxGeometry x="753" y="759" width="61" height="54" as="geometry" />
        </mxCell>
        <mxCell id="fm8aAiWN_2B7bxS7GL88-2275" value="" style="shape=mxgraph.cisco.computers_and_peripherals.terminal;sketch=0;html=1;pointerEvents=1;dashed=0;fillColor=#036897;strokeColor=#ffffff;strokeWidth=2;verticalLabelPosition=bottom;verticalAlign=top;align=center;outlineConnect=0;fontSize=27;" vertex="1" parent="1">
          <mxGeometry x="753" y="830" width="61" height="54" as="geometry" />
        </mxCell>
        <mxCell id="fm8aAiWN_2B7bxS7GL88-2282" value="公网" style="ellipse;shape=cloud;whiteSpace=wrap;html=1;dashed=1;strokeWidth=1;fontSize=27;fillColor=#dae8fc;strokeColor=#6c8ebf;gradientColor=#7ea6e0;" vertex="1" parent="1">
          <mxGeometry x="690" y="1570" width="280" height="160" as="geometry" />
        </mxCell>
        <mxCell id="fm8aAiWN_2B7bxS7GL88-2300" value="&lt;span style=&quot;color: rgb(0, 0, 0);&quot;&gt;本地IPV4网络&lt;/span&gt;" style="ellipse;shape=cloud;whiteSpace=wrap;html=1;dashed=1;strokeWidth=1;fontSize=27;fillColor=#dae8fc;strokeColor=#6c8ebf;gradientColor=#7ea6e0;" vertex="1" parent="1">
          <mxGeometry x="200" y="1300" width="280" height="160" as="geometry" />
        </mxCell>
        <mxCell id="fm8aAiWN_2B7bxS7GL88-2301" value="&lt;span style=&quot;color: rgb(0, 0, 0);&quot;&gt;本地IPV6网络&lt;/span&gt;" style="ellipse;shape=cloud;whiteSpace=wrap;html=1;dashed=1;strokeWidth=1;fontSize=27;fillColor=#dae8fc;strokeColor=#6c8ebf;gradientColor=#7ea6e0;" vertex="1" parent="1">
          <mxGeometry x="200" y="1820" width="280" height="160" as="geometry" />
        </mxCell>
        <mxCell id="fm8aAiWN_2B7bxS7GL88-2302" value="&lt;span style=&quot;color: rgb(0, 0, 0);&quot;&gt;对端IPV4网络&lt;/span&gt;" style="ellipse;shape=cloud;whiteSpace=wrap;html=1;dashed=1;strokeWidth=1;fontSize=27;fillColor=#dae8fc;strokeColor=#6c8ebf;gradientColor=#7ea6e0;" vertex="1" parent="1">
          <mxGeometry x="1241" y="1300" width="280" height="160" as="geometry" />
        </mxCell>
        <mxCell id="fm8aAiWN_2B7bxS7GL88-2303" value="&lt;span style=&quot;color: rgb(0, 0, 0);&quot;&gt;对端IPV6网络&lt;/span&gt;" style="ellipse;shape=cloud;whiteSpace=wrap;html=1;dashed=1;strokeWidth=1;fontSize=27;fillColor=#dae8fc;strokeColor=#6c8ebf;gradientColor=#7ea6e0;" vertex="1" parent="1">
          <mxGeometry x="1254" y="1850" width="280" height="160" as="geometry" />
        </mxCell>
      </root>
    </mxGraphModel>
  </diagram>
</mxfile>
